<mxfile host="app.diagrams.net" agent="Mozilla/5.0 (Windows NT 10.0; Win64; x64) AppleWebKit/537.36 (KHTML, like Gecko) Chrome/128.0.0.0 YaBrowser/24.10.0.0 Safari/537.36" version="24.8.4">
  <diagram id="C5RBs43oDa-KdzZeNtuy" name="Page-1">
    <mxGraphModel dx="2909" dy="923" grid="1" gridSize="10" guides="1" tooltips="1" connect="1" arrows="1" fold="1" page="1" pageScale="1" pageWidth="1182" pageHeight="1378" background="#FFFFFF" math="0" shadow="0">
      <root>
        <mxCell id="WIyWlLk6GJQsqaUBKTNV-0" />
        <mxCell id="WIyWlLk6GJQsqaUBKTNV-1" parent="WIyWlLk6GJQsqaUBKTNV-0" />
        <mxCell id="zkfFHV4jXpPFQw0GAbJ--0" value="ru.ifmo.se.pokemon.Pokemon" style="swimlane;fontStyle=2;align=center;verticalAlign=top;childLayout=stackLayout;horizontal=1;startSize=26;horizontalStack=0;resizeParent=1;resizeLast=0;collapsible=1;marginBottom=0;rounded=0;shadow=0;strokeWidth=2;fontSize=13;fillColor=#FF6666;" parent="WIyWlLk6GJQsqaUBKTNV-1" vertex="1">
          <mxGeometry x="880" y="40" width="210" height="40" as="geometry">
            <mxRectangle x="900" y="40" width="160" height="26" as="alternateBounds" />
          </mxGeometry>
        </mxCell>
        <mxCell id="lT8LV4JRvNrV-bpm1Su4-11" style="edgeStyle=orthogonalEdgeStyle;rounded=1;orthogonalLoop=1;jettySize=auto;html=1;entryX=0;entryY=0.25;entryDx=0;entryDy=0;curved=0;strokeWidth=2;fillColor=#e51400;strokeColor=#B20000;fontSize=13;endArrow=block;endFill=0;" edge="1" parent="WIyWlLk6GJQsqaUBKTNV-1" source="lT8LV4JRvNrV-bpm1Su4-7" target="zkfFHV4jXpPFQw0GAbJ--0">
          <mxGeometry relative="1" as="geometry" />
        </mxCell>
        <mxCell id="lT8LV4JRvNrV-bpm1Su4-7" value="TapuBulu" style="swimlane;fontStyle=0;childLayout=stackLayout;horizontal=1;startSize=30;horizontalStack=0;resizeParent=1;resizeParentMax=0;resizeLast=0;collapsible=1;marginBottom=0;whiteSpace=wrap;html=1;strokeWidth=2;fontSize=13;fillColor=#FF9999;" vertex="1" parent="WIyWlLk6GJQsqaUBKTNV-1">
          <mxGeometry x="210" y="130" width="220" height="60" as="geometry" />
        </mxCell>
        <mxCell id="lT8LV4JRvNrV-bpm1Su4-8" value="TapuBulu(name: String, level: integer)" style="text;strokeColor=none;fillColor=none;align=left;verticalAlign=middle;spacingLeft=4;spacingRight=4;overflow=hidden;points=[[0,0.5],[1,0.5]];portConstraint=eastwest;rotatable=0;whiteSpace=wrap;html=1;fontSize=13;" vertex="1" parent="lT8LV4JRvNrV-bpm1Su4-7">
          <mxGeometry y="30" width="220" height="30" as="geometry" />
        </mxCell>
        <mxCell id="lT8LV4JRvNrV-bpm1Su4-19" style="edgeStyle=orthogonalEdgeStyle;rounded=1;orthogonalLoop=1;jettySize=auto;html=1;entryX=0.5;entryY=1;entryDx=0;entryDy=0;curved=0;strokeWidth=2;fillColor=#e51400;strokeColor=#B20000;fontSize=13;endArrow=block;endFill=0;" edge="1" parent="WIyWlLk6GJQsqaUBKTNV-1" source="lT8LV4JRvNrV-bpm1Su4-13" target="zkfFHV4jXpPFQw0GAbJ--0">
          <mxGeometry relative="1" as="geometry" />
        </mxCell>
        <mxCell id="lT8LV4JRvNrV-bpm1Su4-13" value="Bewear" style="swimlane;fontStyle=0;childLayout=stackLayout;horizontal=1;startSize=30;horizontalStack=0;resizeParent=1;resizeParentMax=0;resizeLast=0;collapsible=1;marginBottom=0;whiteSpace=wrap;html=1;strokeWidth=2;fontSize=13;fillColor=#FF9999;" vertex="1" parent="WIyWlLk6GJQsqaUBKTNV-1">
          <mxGeometry x="875" y="260" width="220" height="60" as="geometry" />
        </mxCell>
        <mxCell id="lT8LV4JRvNrV-bpm1Su4-14" value="Bewear&lt;span style=&quot;background-color: initial; font-size: 13px;&quot;&gt;(name: String, level: integer)&lt;/span&gt;" style="text;strokeColor=none;fillColor=none;align=left;verticalAlign=middle;spacingLeft=4;spacingRight=4;overflow=hidden;points=[[0,0.5],[1,0.5]];portConstraint=eastwest;rotatable=0;whiteSpace=wrap;html=1;fontSize=13;" vertex="1" parent="lT8LV4JRvNrV-bpm1Su4-13">
          <mxGeometry y="30" width="220" height="30" as="geometry" />
        </mxCell>
        <mxCell id="lT8LV4JRvNrV-bpm1Su4-18" style="edgeStyle=orthogonalEdgeStyle;rounded=1;orthogonalLoop=1;jettySize=auto;html=1;curved=0;strokeWidth=2;fillColor=#e51400;strokeColor=#B20000;fontSize=13;endArrow=block;endFill=0;" edge="1" parent="WIyWlLk6GJQsqaUBKTNV-1" source="lT8LV4JRvNrV-bpm1Su4-15" target="lT8LV4JRvNrV-bpm1Su4-13">
          <mxGeometry relative="1" as="geometry" />
        </mxCell>
        <mxCell id="lT8LV4JRvNrV-bpm1Su4-15" value="Stufful" style="swimlane;fontStyle=0;childLayout=stackLayout;horizontal=1;startSize=30;horizontalStack=0;resizeParent=1;resizeParentMax=0;resizeLast=0;collapsible=1;marginBottom=0;whiteSpace=wrap;html=1;strokeWidth=2;fontSize=13;fillColor=#FF9999;" vertex="1" parent="WIyWlLk6GJQsqaUBKTNV-1">
          <mxGeometry x="875" y="420" width="220" height="60" as="geometry" />
        </mxCell>
        <mxCell id="lT8LV4JRvNrV-bpm1Su4-16" value="&lt;span style=&quot;background-color: initial; font-size: 13px;&quot;&gt;Stufful&lt;/span&gt;&lt;span style=&quot;background-color: initial; font-size: 13px;&quot;&gt;(name: String, level: integer)&lt;/span&gt;" style="text;strokeColor=none;fillColor=none;align=left;verticalAlign=middle;spacingLeft=4;spacingRight=4;overflow=hidden;points=[[0,0.5],[1,0.5]];portConstraint=eastwest;rotatable=0;whiteSpace=wrap;html=1;fontSize=13;" vertex="1" parent="lT8LV4JRvNrV-bpm1Su4-15">
          <mxGeometry y="30" width="220" height="30" as="geometry" />
        </mxCell>
        <mxCell id="lT8LV4JRvNrV-bpm1Su4-27" style="edgeStyle=orthogonalEdgeStyle;rounded=1;orthogonalLoop=1;jettySize=auto;html=1;strokeWidth=2;fillColor=#e51400;strokeColor=#B20000;curved=0;endArrow=block;endFill=0;" edge="1" parent="WIyWlLk6GJQsqaUBKTNV-1" source="lT8LV4JRvNrV-bpm1Su4-20" target="lT8LV4JRvNrV-bpm1Su4-25">
          <mxGeometry relative="1" as="geometry" />
        </mxCell>
        <mxCell id="lT8LV4JRvNrV-bpm1Su4-20" value="Eelektrik" style="swimlane;fontStyle=0;childLayout=stackLayout;horizontal=1;startSize=30;horizontalStack=0;resizeParent=1;resizeParentMax=0;resizeLast=0;collapsible=1;marginBottom=0;whiteSpace=wrap;html=1;strokeWidth=2;fontSize=13;fillColor=#FF9999;" vertex="1" parent="WIyWlLk6GJQsqaUBKTNV-1">
          <mxGeometry x="1490" y="260" width="240" height="60" as="geometry" />
        </mxCell>
        <mxCell id="lT8LV4JRvNrV-bpm1Su4-21" value="&lt;span style=&quot;background-color: initial; font-size: 13px;&quot;&gt;Eelektrik(name: String, level: integer)&lt;/span&gt;" style="text;strokeColor=none;fillColor=none;align=left;verticalAlign=middle;spacingLeft=4;spacingRight=4;overflow=hidden;points=[[0,0.5],[1,0.5]];portConstraint=eastwest;rotatable=0;whiteSpace=wrap;html=1;fontSize=13;" vertex="1" parent="lT8LV4JRvNrV-bpm1Su4-20">
          <mxGeometry y="30" width="240" height="30" as="geometry" />
        </mxCell>
        <mxCell id="lT8LV4JRvNrV-bpm1Su4-22" style="edgeStyle=orthogonalEdgeStyle;rounded=1;orthogonalLoop=1;jettySize=auto;html=1;curved=0;strokeWidth=2;fillColor=#e51400;strokeColor=#B20000;fontSize=13;endArrow=block;endFill=0;" edge="1" parent="WIyWlLk6GJQsqaUBKTNV-1" source="lT8LV4JRvNrV-bpm1Su4-23" target="lT8LV4JRvNrV-bpm1Su4-20">
          <mxGeometry relative="1" as="geometry" />
        </mxCell>
        <mxCell id="lT8LV4JRvNrV-bpm1Su4-23" value="Tynamo" style="swimlane;fontStyle=0;childLayout=stackLayout;horizontal=1;startSize=30;horizontalStack=0;resizeParent=1;resizeParentMax=0;resizeLast=0;collapsible=1;marginBottom=0;whiteSpace=wrap;html=1;strokeWidth=2;fontSize=13;fillColor=#FF9999;" vertex="1" parent="WIyWlLk6GJQsqaUBKTNV-1">
          <mxGeometry x="1490" y="432" width="240" height="60" as="geometry" />
        </mxCell>
        <mxCell id="lT8LV4JRvNrV-bpm1Su4-24" value="&lt;span style=&quot;background-color: initial; font-size: 13px;&quot;&gt;Tynamo&lt;/span&gt;&lt;span style=&quot;background-color: initial; font-size: 13px;&quot;&gt;(name: String, level: integer)&lt;/span&gt;" style="text;strokeColor=none;fillColor=none;align=left;verticalAlign=middle;spacingLeft=4;spacingRight=4;overflow=hidden;points=[[0,0.5],[1,0.5]];portConstraint=eastwest;rotatable=0;whiteSpace=wrap;html=1;fontSize=13;" vertex="1" parent="lT8LV4JRvNrV-bpm1Su4-23">
          <mxGeometry y="30" width="240" height="30" as="geometry" />
        </mxCell>
        <mxCell id="lT8LV4JRvNrV-bpm1Su4-28" style="edgeStyle=orthogonalEdgeStyle;rounded=1;orthogonalLoop=1;jettySize=auto;html=1;entryX=1;entryY=0.25;entryDx=0;entryDy=0;strokeWidth=2;fillColor=#e51400;strokeColor=#B20000;curved=0;endArrow=block;endFill=0;" edge="1" parent="WIyWlLk6GJQsqaUBKTNV-1" source="lT8LV4JRvNrV-bpm1Su4-25" target="zkfFHV4jXpPFQw0GAbJ--0">
          <mxGeometry relative="1" as="geometry" />
        </mxCell>
        <mxCell id="lT8LV4JRvNrV-bpm1Su4-25" value="Eelektross" style="swimlane;fontStyle=0;childLayout=stackLayout;horizontal=1;startSize=30;horizontalStack=0;resizeParent=1;resizeParentMax=0;resizeLast=0;collapsible=1;marginBottom=0;whiteSpace=wrap;html=1;strokeWidth=2;fontSize=13;fillColor=#FF9999;" vertex="1" parent="WIyWlLk6GJQsqaUBKTNV-1">
          <mxGeometry x="1490" y="130" width="240" height="60" as="geometry" />
        </mxCell>
        <mxCell id="lT8LV4JRvNrV-bpm1Su4-26" value="&lt;span style=&quot;text-align: center;&quot;&gt;Eelektross&lt;/span&gt;&lt;span style=&quot;background-color: initial; font-size: 13px;&quot;&gt;(name: String, level: integer)&lt;/span&gt;" style="text;strokeColor=none;fillColor=none;align=left;verticalAlign=middle;spacingLeft=4;spacingRight=4;overflow=hidden;points=[[0,0.5],[1,0.5]];portConstraint=eastwest;rotatable=0;whiteSpace=wrap;html=1;fontSize=13;" vertex="1" parent="lT8LV4JRvNrV-bpm1Su4-25">
          <mxGeometry y="30" width="240" height="30" as="geometry" />
        </mxCell>
        <mxCell id="lT8LV4JRvNrV-bpm1Su4-31" value="ru.ifmo.se.pokemon.Move&#xa;" style="swimlane;fontStyle=2;align=center;verticalAlign=top;childLayout=stackLayout;horizontal=1;startSize=26;horizontalStack=0;resizeParent=1;resizeLast=0;collapsible=1;marginBottom=0;rounded=0;shadow=0;strokeWidth=2;fontSize=13;fillColor=#6666FF;" vertex="1" parent="WIyWlLk6GJQsqaUBKTNV-1">
          <mxGeometry x="880" y="1260" width="210" height="40" as="geometry">
            <mxRectangle x="900" y="40" width="160" height="26" as="alternateBounds" />
          </mxGeometry>
        </mxCell>
        <mxCell id="lT8LV4JRvNrV-bpm1Su4-38" style="edgeStyle=orthogonalEdgeStyle;rounded=1;orthogonalLoop=1;jettySize=auto;html=1;entryX=1;entryY=0.5;entryDx=0;entryDy=0;strokeWidth=2;curved=0;strokeColor=#0000FF;exitX=0;exitY=0.5;exitDx=0;exitDy=0;endArrow=block;endFill=0;" edge="1" parent="WIyWlLk6GJQsqaUBKTNV-1" source="lT8LV4JRvNrV-bpm1Su4-33" target="lT8LV4JRvNrV-bpm1Su4-31">
          <mxGeometry relative="1" as="geometry">
            <mxPoint x="1590" y="1100" as="sourcePoint" />
            <mxPoint x="1170.0000000000005" y="1180" as="targetPoint" />
          </mxGeometry>
        </mxCell>
        <mxCell id="lT8LV4JRvNrV-bpm1Su4-33" value="ru.ifmo.se.pokemon.StatusMove&#xa;&#xa;" style="swimlane;fontStyle=2;align=center;verticalAlign=top;childLayout=stackLayout;horizontal=1;startSize=26;horizontalStack=0;resizeParent=1;resizeLast=0;collapsible=1;marginBottom=0;rounded=0;shadow=0;strokeWidth=2;fontSize=13;fillColor=#FFFF66;" vertex="1" parent="WIyWlLk6GJQsqaUBKTNV-1">
          <mxGeometry x="1900" y="1180" width="210" height="40" as="geometry">
            <mxRectangle x="900" y="40" width="160" height="26" as="alternateBounds" />
          </mxGeometry>
        </mxCell>
        <mxCell id="lT8LV4JRvNrV-bpm1Su4-37" style="edgeStyle=orthogonalEdgeStyle;rounded=1;orthogonalLoop=1;jettySize=auto;html=1;entryX=0.5;entryY=0;entryDx=0;entryDy=0;strokeWidth=2;curved=0;strokeColor=#0000FF;endArrow=block;endFill=0;" edge="1" parent="WIyWlLk6GJQsqaUBKTNV-1" source="lT8LV4JRvNrV-bpm1Su4-34" target="lT8LV4JRvNrV-bpm1Su4-31">
          <mxGeometry relative="1" as="geometry" />
        </mxCell>
        <mxCell id="lT8LV4JRvNrV-bpm1Su4-34" value="ru.ifmo.se.pokemon.SpecialMove&#xa;" style="swimlane;fontStyle=2;align=center;verticalAlign=top;childLayout=stackLayout;horizontal=1;startSize=26;horizontalStack=0;resizeParent=1;resizeLast=0;collapsible=1;marginBottom=0;rounded=0;shadow=0;strokeWidth=2;fontSize=13;fillColor=#66FF66;" vertex="1" parent="WIyWlLk6GJQsqaUBKTNV-1">
          <mxGeometry x="880" y="1180" width="210" height="40" as="geometry">
            <mxRectangle x="900" y="40" width="160" height="26" as="alternateBounds" />
          </mxGeometry>
        </mxCell>
        <mxCell id="lT8LV4JRvNrV-bpm1Su4-36" style="edgeStyle=orthogonalEdgeStyle;rounded=1;orthogonalLoop=1;jettySize=auto;html=1;entryX=0;entryY=0.5;entryDx=0;entryDy=0;strokeWidth=2;curved=0;strokeColor=#0000FF;exitX=0.5;exitY=1;exitDx=0;exitDy=0;endArrow=block;endFill=0;" edge="1" parent="WIyWlLk6GJQsqaUBKTNV-1" source="lT8LV4JRvNrV-bpm1Su4-35" target="lT8LV4JRvNrV-bpm1Su4-31">
          <mxGeometry relative="1" as="geometry" />
        </mxCell>
        <mxCell id="lT8LV4JRvNrV-bpm1Su4-35" value="ru.ifmo.se.pokemon.PhysicalMove&#xa;&#xa;" style="swimlane;fontStyle=2;align=center;verticalAlign=top;childLayout=stackLayout;horizontal=1;startSize=26;horizontalStack=0;resizeParent=1;resizeLast=0;collapsible=1;marginBottom=0;rounded=0;shadow=0;strokeWidth=2;fontSize=13;fillColor=#6666FF;" vertex="1" parent="WIyWlLk6GJQsqaUBKTNV-1">
          <mxGeometry x="480" y="990" width="210" height="40" as="geometry">
            <mxRectangle x="900" y="40" width="160" height="26" as="alternateBounds" />
          </mxGeometry>
        </mxCell>
        <mxCell id="lT8LV4JRvNrV-bpm1Su4-93" style="edgeStyle=orthogonalEdgeStyle;rounded=1;orthogonalLoop=1;jettySize=auto;html=1;entryX=0;entryY=0;entryDx=0;entryDy=0;fillColor=#e3c800;strokeColor=#B09500;strokeWidth=2;curved=0;exitX=1;exitY=0.5;exitDx=0;exitDy=0;endArrow=block;endFill=0;" edge="1" parent="WIyWlLk6GJQsqaUBKTNV-1" source="lT8LV4JRvNrV-bpm1Su4-43" target="lT8LV4JRvNrV-bpm1Su4-33">
          <mxGeometry relative="1" as="geometry">
            <Array as="points">
              <mxPoint x="1360" y="630" />
              <mxPoint x="1360" y="1180" />
            </Array>
          </mxGeometry>
        </mxCell>
        <mxCell id="lT8LV4JRvNrV-bpm1Su4-117" style="edgeStyle=orthogonalEdgeStyle;rounded=0;orthogonalLoop=1;jettySize=auto;html=1;entryX=1;entryY=0.25;entryDx=0;entryDy=0;endArrow=diamondThin;endFill=1;" edge="1" parent="WIyWlLk6GJQsqaUBKTNV-1" source="lT8LV4JRvNrV-bpm1Su4-41" target="lT8LV4JRvNrV-bpm1Su4-13">
          <mxGeometry relative="1" as="geometry">
            <Array as="points">
              <mxPoint x="995" y="510" />
              <mxPoint x="1115" y="510" />
              <mxPoint x="1115" y="275" />
            </Array>
          </mxGeometry>
        </mxCell>
        <mxCell id="lT8LV4JRvNrV-bpm1Su4-41" value="Rest" style="swimlane;fontStyle=0;childLayout=stackLayout;horizontal=1;startSize=30;horizontalStack=0;resizeParent=1;resizeParentMax=0;resizeLast=0;collapsible=1;marginBottom=0;whiteSpace=wrap;html=1;fontSize=11;strokeWidth=2;fillColor=#FFFF99;" vertex="1" parent="WIyWlLk6GJQsqaUBKTNV-1">
          <mxGeometry x="830" y="540" width="330" height="120" as="geometry" />
        </mxCell>
        <mxCell id="lT8LV4JRvNrV-bpm1Su4-42" value="Rest()" style="text;strokeColor=none;fillColor=none;align=left;verticalAlign=middle;spacingLeft=4;spacingRight=4;overflow=hidden;points=[[0,0.5],[1,0.5]];portConstraint=eastwest;rotatable=0;whiteSpace=wrap;html=1;fontSize=11;strokeWidth=2;" vertex="1" parent="lT8LV4JRvNrV-bpm1Su4-41">
          <mxGeometry y="30" width="330" height="30" as="geometry" />
        </mxCell>
        <mxCell id="lT8LV4JRvNrV-bpm1Su4-43" value="&lt;div style=&quot;font-size: 11px;&quot;&gt;# applySelfEffects(pokemon: Pokemon): void&lt;br style=&quot;font-size: 11px;&quot;&gt;&lt;/div&gt;# describe(): String" style="text;strokeColor=default;fillColor=none;align=left;verticalAlign=middle;spacingLeft=4;spacingRight=4;overflow=hidden;points=[[0,0.5],[1,0.5]];portConstraint=eastwest;rotatable=0;whiteSpace=wrap;html=1;fontSize=11;strokeWidth=2;" vertex="1" parent="lT8LV4JRvNrV-bpm1Su4-41">
          <mxGeometry y="60" width="330" height="60" as="geometry" />
        </mxCell>
        <mxCell id="lT8LV4JRvNrV-bpm1Su4-56" style="edgeStyle=orthogonalEdgeStyle;rounded=1;orthogonalLoop=1;jettySize=auto;html=1;strokeWidth=2;fillColor=#0050ef;strokeColor=#001DBC;curved=0;entryX=0.5;entryY=0;entryDx=0;entryDy=0;startArrow=none;startFill=0;endArrow=block;endFill=0;" edge="1" parent="WIyWlLk6GJQsqaUBKTNV-1" source="lT8LV4JRvNrV-bpm1Su4-45" target="lT8LV4JRvNrV-bpm1Su4-35">
          <mxGeometry relative="1" as="geometry">
            <mxPoint x="270" y="940" as="targetPoint" />
            <Array as="points">
              <mxPoint x="350" y="620" />
              <mxPoint x="350" y="880" />
              <mxPoint x="585" y="880" />
            </Array>
          </mxGeometry>
        </mxCell>
        <mxCell id="lT8LV4JRvNrV-bpm1Su4-58" style="edgeStyle=orthogonalEdgeStyle;rounded=1;orthogonalLoop=1;jettySize=auto;html=1;entryX=0.5;entryY=0;entryDx=0;entryDy=0;curved=0;strokeWidth=2;fillColor=#0050ef;strokeColor=#001DBC;startArrow=none;startFill=0;exitX=-0.001;exitY=0.333;exitDx=0;exitDy=0;exitPerimeter=0;endArrow=block;endFill=0;" edge="1" parent="WIyWlLk6GJQsqaUBKTNV-1" source="lT8LV4JRvNrV-bpm1Su4-110" target="lT8LV4JRvNrV-bpm1Su4-35">
          <mxGeometry relative="1" as="geometry">
            <mxPoint x="330" y="719" as="targetPoint" />
            <mxPoint x="430" y="460" as="sourcePoint" />
            <Array as="points">
              <mxPoint x="350" y="470" />
              <mxPoint x="350" y="880" />
              <mxPoint x="585" y="880" />
            </Array>
          </mxGeometry>
        </mxCell>
        <mxCell id="lT8LV4JRvNrV-bpm1Su4-49" value="RockSlide" style="swimlane;fontStyle=0;childLayout=stackLayout;horizontal=1;startSize=30;horizontalStack=0;resizeParent=1;resizeParentMax=0;resizeLast=0;collapsible=1;marginBottom=0;whiteSpace=wrap;html=1;fontSize=11;strokeWidth=2;fillColor=#CCCCFF;" vertex="1" parent="WIyWlLk6GJQsqaUBKTNV-1">
          <mxGeometry x="410" y="390" width="330" height="120" as="geometry" />
        </mxCell>
        <mxCell id="lT8LV4JRvNrV-bpm1Su4-50" value="&lt;span style=&quot;text-align: center;&quot;&gt;RockSlide()&lt;/span&gt;" style="text;strokeColor=none;fillColor=none;align=left;verticalAlign=middle;spacingLeft=4;spacingRight=4;overflow=hidden;points=[[0,0.5],[1,0.5]];portConstraint=eastwest;rotatable=0;whiteSpace=wrap;html=1;fontSize=11;strokeWidth=2;" vertex="1" parent="lT8LV4JRvNrV-bpm1Su4-49">
          <mxGeometry y="30" width="330" height="30" as="geometry" />
        </mxCell>
        <mxCell id="lT8LV4JRvNrV-bpm1Su4-110" value="&lt;div style=&quot;font-size: 11px;&quot;&gt;# applyOppEffects(pokemon: Pokemon): void&lt;/div&gt;# describe(): String" style="text;strokeColor=default;fillColor=none;align=left;verticalAlign=middle;spacingLeft=4;spacingRight=4;overflow=hidden;points=[[0,0.5],[1,0.5]];portConstraint=eastwest;rotatable=0;whiteSpace=wrap;html=1;fontSize=11;strokeWidth=2;" vertex="1" parent="lT8LV4JRvNrV-bpm1Su4-49">
          <mxGeometry y="60" width="330" height="60" as="geometry" />
        </mxCell>
        <mxCell id="lT8LV4JRvNrV-bpm1Su4-57" style="edgeStyle=orthogonalEdgeStyle;rounded=1;orthogonalLoop=1;jettySize=auto;html=1;strokeWidth=2;curved=0;fillColor=#0050ef;strokeColor=#001DBC;entryX=0.5;entryY=0;entryDx=0;entryDy=0;startArrow=none;startFill=0;endArrow=block;endFill=0;" edge="1" parent="WIyWlLk6GJQsqaUBKTNV-1" source="lT8LV4JRvNrV-bpm1Su4-52" target="lT8LV4JRvNrV-bpm1Su4-35">
          <mxGeometry relative="1" as="geometry">
            <mxPoint x="260" y="840" as="targetPoint" />
            <Array as="points">
              <mxPoint x="350" y="340" />
              <mxPoint x="350" y="880" />
              <mxPoint x="585" y="880" />
            </Array>
          </mxGeometry>
        </mxCell>
        <mxCell id="lT8LV4JRvNrV-bpm1Su4-52" value="ShadowClaw" style="swimlane;fontStyle=0;childLayout=stackLayout;horizontal=1;startSize=30;horizontalStack=0;resizeParent=1;resizeParentMax=0;resizeLast=0;collapsible=1;marginBottom=0;whiteSpace=wrap;html=1;fontSize=11;strokeWidth=2;fillColor=#CCCCFF;" vertex="1" parent="WIyWlLk6GJQsqaUBKTNV-1">
          <mxGeometry x="410" y="240" width="330" height="120" as="geometry" />
        </mxCell>
        <mxCell id="lT8LV4JRvNrV-bpm1Su4-53" value="&lt;span style=&quot;text-align: center;&quot;&gt;ShadowClaw()&lt;/span&gt;" style="text;strokeColor=none;fillColor=none;align=left;verticalAlign=middle;spacingLeft=4;spacingRight=4;overflow=hidden;points=[[0,0.5],[1,0.5]];portConstraint=eastwest;rotatable=0;whiteSpace=wrap;html=1;fontSize=11;strokeWidth=2;" vertex="1" parent="lT8LV4JRvNrV-bpm1Su4-52">
          <mxGeometry y="30" width="330" height="30" as="geometry" />
        </mxCell>
        <mxCell id="lT8LV4JRvNrV-bpm1Su4-54" value="&lt;div style=&quot;font-size: 11px;&quot;&gt;# calcCriticalHit(pokemon: Pokemon, pokemon1: Pokemon): void&lt;/div&gt;# describe(): String" style="text;strokeColor=default;fillColor=none;align=left;verticalAlign=middle;spacingLeft=4;spacingRight=4;overflow=hidden;points=[[0,0.5],[1,0.5]];portConstraint=eastwest;rotatable=0;whiteSpace=wrap;html=1;fontSize=11;strokeWidth=2;" vertex="1" parent="lT8LV4JRvNrV-bpm1Su4-52">
          <mxGeometry y="60" width="330" height="60" as="geometry" />
        </mxCell>
        <mxCell id="lT8LV4JRvNrV-bpm1Su4-62" style="edgeStyle=orthogonalEdgeStyle;rounded=1;orthogonalLoop=1;jettySize=auto;html=1;strokeWidth=2;fillColor=#008a00;strokeColor=#005700;curved=0;entryX=0.5;entryY=0;entryDx=0;entryDy=0;startArrow=none;startFill=0;endArrow=block;endFill=0;" edge="1" parent="WIyWlLk6GJQsqaUBKTNV-1" source="lT8LV4JRvNrV-bpm1Su4-59" target="lT8LV4JRvNrV-bpm1Su4-34">
          <mxGeometry relative="1" as="geometry">
            <mxPoint x="830" y="1200" as="targetPoint" />
            <Array as="points">
              <mxPoint x="2240" y="330" />
              <mxPoint x="2240" y="1070" />
              <mxPoint x="985" y="1070" />
            </Array>
          </mxGeometry>
        </mxCell>
        <mxCell id="lT8LV4JRvNrV-bpm1Su4-59" value="Acid" style="swimlane;fontStyle=0;childLayout=stackLayout;horizontal=1;startSize=30;horizontalStack=0;resizeParent=1;resizeParentMax=0;resizeLast=0;collapsible=1;marginBottom=0;whiteSpace=wrap;html=1;fontSize=11;strokeWidth=2;fillColor=#99FF99;" vertex="1" parent="WIyWlLk6GJQsqaUBKTNV-1">
          <mxGeometry x="1840" y="280" width="330" height="120" as="geometry" />
        </mxCell>
        <mxCell id="lT8LV4JRvNrV-bpm1Su4-60" value="Acid()" style="text;strokeColor=none;fillColor=none;align=left;verticalAlign=middle;spacingLeft=4;spacingRight=4;overflow=hidden;points=[[0,0.5],[1,0.5]];portConstraint=eastwest;rotatable=0;whiteSpace=wrap;html=1;fontSize=11;strokeWidth=2;" vertex="1" parent="lT8LV4JRvNrV-bpm1Su4-59">
          <mxGeometry y="30" width="330" height="30" as="geometry" />
        </mxCell>
        <mxCell id="lT8LV4JRvNrV-bpm1Su4-61" value="&lt;div style=&quot;font-size: 11px;&quot;&gt;# applyOppEffects(pokemon: Pokemon): void&lt;br style=&quot;font-size: 11px;&quot;&gt;&lt;/div&gt;# describe(): String" style="text;strokeColor=default;fillColor=none;align=left;verticalAlign=middle;spacingLeft=4;spacingRight=4;overflow=hidden;points=[[0,0.5],[1,0.5]];portConstraint=eastwest;rotatable=0;whiteSpace=wrap;html=1;fontSize=11;strokeWidth=2;" vertex="1" parent="lT8LV4JRvNrV-bpm1Su4-59">
          <mxGeometry y="60" width="330" height="60" as="geometry" />
        </mxCell>
        <mxCell id="lT8LV4JRvNrV-bpm1Su4-69" style="edgeStyle=orthogonalEdgeStyle;rounded=1;orthogonalLoop=1;jettySize=auto;html=1;strokeWidth=2;curved=0;fillColor=#008a00;strokeColor=#005700;startArrow=none;startFill=0;endArrow=block;endFill=0;" edge="1" parent="WIyWlLk6GJQsqaUBKTNV-1" source="lT8LV4JRvNrV-bpm1Su4-66">
          <mxGeometry relative="1" as="geometry">
            <mxPoint x="985" y="1180" as="targetPoint" />
            <Array as="points">
              <mxPoint x="2240" y="190" />
              <mxPoint x="2240" y="1070" />
              <mxPoint x="985" y="1070" />
            </Array>
          </mxGeometry>
        </mxCell>
        <mxCell id="lT8LV4JRvNrV-bpm1Su4-128" style="edgeStyle=orthogonalEdgeStyle;rounded=0;orthogonalLoop=1;jettySize=auto;html=1;entryX=0.5;entryY=0;entryDx=0;entryDy=0;endArrow=diamondThin;endFill=1;" edge="1" parent="WIyWlLk6GJQsqaUBKTNV-1" source="lT8LV4JRvNrV-bpm1Su4-66" target="lT8LV4JRvNrV-bpm1Su4-25">
          <mxGeometry relative="1" as="geometry">
            <Array as="points">
              <mxPoint x="2005" y="90" />
              <mxPoint x="1610" y="90" />
            </Array>
          </mxGeometry>
        </mxCell>
        <mxCell id="lT8LV4JRvNrV-bpm1Su4-66" value="AcidSpray" style="swimlane;fontStyle=0;childLayout=stackLayout;horizontal=1;startSize=30;horizontalStack=0;resizeParent=1;resizeParentMax=0;resizeLast=0;collapsible=1;marginBottom=0;whiteSpace=wrap;html=1;fontSize=11;strokeWidth=2;fillColor=#99FF99;" vertex="1" parent="WIyWlLk6GJQsqaUBKTNV-1">
          <mxGeometry x="1840" y="130" width="330" height="120" as="geometry" />
        </mxCell>
        <mxCell id="lT8LV4JRvNrV-bpm1Su4-67" value="AcidSpray()" style="text;strokeColor=none;fillColor=none;align=left;verticalAlign=middle;spacingLeft=4;spacingRight=4;overflow=hidden;points=[[0,0.5],[1,0.5]];portConstraint=eastwest;rotatable=0;whiteSpace=wrap;html=1;fontSize=11;strokeWidth=2;" vertex="1" parent="lT8LV4JRvNrV-bpm1Su4-66">
          <mxGeometry y="30" width="330" height="30" as="geometry" />
        </mxCell>
        <mxCell id="lT8LV4JRvNrV-bpm1Su4-68" value="&lt;div style=&quot;font-size: 11px;&quot;&gt;# applyOppEffects(pokemon: Pokemon): void&lt;br style=&quot;font-size: 11px;&quot;&gt;&lt;/div&gt;# describe(): String" style="text;strokeColor=default;fillColor=none;align=left;verticalAlign=middle;spacingLeft=4;spacingRight=4;overflow=hidden;points=[[0,0.5],[1,0.5]];portConstraint=eastwest;rotatable=0;whiteSpace=wrap;html=1;fontSize=11;strokeWidth=2;" vertex="1" parent="lT8LV4JRvNrV-bpm1Su4-66">
          <mxGeometry y="60" width="330" height="60" as="geometry" />
        </mxCell>
        <mxCell id="lT8LV4JRvNrV-bpm1Su4-73" style="edgeStyle=orthogonalEdgeStyle;rounded=1;orthogonalLoop=1;jettySize=auto;html=1;strokeWidth=2;curved=0;fillColor=#008a00;strokeColor=#005700;entryX=0.5;entryY=0;entryDx=0;entryDy=0;startArrow=none;startFill=0;endArrow=block;endFill=0;" edge="1" parent="WIyWlLk6GJQsqaUBKTNV-1" source="lT8LV4JRvNrV-bpm1Su4-70" target="lT8LV4JRvNrV-bpm1Su4-34">
          <mxGeometry relative="1" as="geometry">
            <mxPoint x="1010" y="1170" as="targetPoint" />
          </mxGeometry>
        </mxCell>
        <mxCell id="lT8LV4JRvNrV-bpm1Su4-70" value="CargeBeam" style="swimlane;fontStyle=0;childLayout=stackLayout;horizontal=1;startSize=30;horizontalStack=0;resizeParent=1;resizeParentMax=0;resizeLast=0;collapsible=1;marginBottom=0;whiteSpace=wrap;html=1;fontSize=11;strokeWidth=2;fillColor=#99FF99;" vertex="1" parent="WIyWlLk6GJQsqaUBKTNV-1">
          <mxGeometry x="820" y="720" width="330" height="120" as="geometry" />
        </mxCell>
        <mxCell id="lT8LV4JRvNrV-bpm1Su4-72" value="&lt;span style=&quot;text-align: center;&quot;&gt;CargeBeam&lt;/span&gt;()" style="text;strokeColor=none;fillColor=none;align=left;verticalAlign=middle;spacingLeft=4;spacingRight=4;overflow=hidden;points=[[0,0.5],[1,0.5]];portConstraint=eastwest;rotatable=0;whiteSpace=wrap;html=1;fontSize=11;strokeWidth=2;" vertex="1" parent="lT8LV4JRvNrV-bpm1Su4-70">
          <mxGeometry y="30" width="330" height="30" as="geometry" />
        </mxCell>
        <mxCell id="lT8LV4JRvNrV-bpm1Su4-71" value="&lt;div style=&quot;font-size: 11px;&quot;&gt;# applySelfEffects(pokemon: Pokemon): void&lt;br style=&quot;font-size: 11px;&quot;&gt;&lt;/div&gt;# describe(): String" style="text;strokeColor=default;fillColor=none;align=left;verticalAlign=middle;spacingLeft=4;spacingRight=4;overflow=hidden;points=[[0,0.5],[1,0.5]];portConstraint=eastwest;rotatable=0;whiteSpace=wrap;html=1;fontSize=11;strokeWidth=2;" vertex="1" parent="lT8LV4JRvNrV-bpm1Su4-70">
          <mxGeometry y="60" width="330" height="60" as="geometry" />
        </mxCell>
        <mxCell id="lT8LV4JRvNrV-bpm1Su4-78" style="edgeStyle=orthogonalEdgeStyle;rounded=1;orthogonalLoop=1;jettySize=auto;html=1;entryX=0;entryY=0.5;entryDx=0;entryDy=0;strokeWidth=2;curved=0;fillColor=#008a00;strokeColor=#005700;startArrow=none;startFill=0;endArrow=block;endFill=0;" edge="1" parent="WIyWlLk6GJQsqaUBKTNV-1" source="lT8LV4JRvNrV-bpm1Su4-75" target="lT8LV4JRvNrV-bpm1Su4-34">
          <mxGeometry relative="1" as="geometry">
            <Array as="points">
              <mxPoint x="-350" y="470" />
              <mxPoint x="-350" y="1200" />
            </Array>
          </mxGeometry>
        </mxCell>
        <mxCell id="lT8LV4JRvNrV-bpm1Su4-75" value="EnergyBall" style="swimlane;fontStyle=0;childLayout=stackLayout;horizontal=1;startSize=30;horizontalStack=0;resizeParent=1;resizeParentMax=0;resizeLast=0;collapsible=1;marginBottom=0;whiteSpace=wrap;html=1;fontSize=11;strokeWidth=2;fillColor=#99FF99;" vertex="1" parent="WIyWlLk6GJQsqaUBKTNV-1">
          <mxGeometry x="-250" y="410" width="330" height="120" as="geometry" />
        </mxCell>
        <mxCell id="lT8LV4JRvNrV-bpm1Su4-76" value="&lt;span style=&quot;text-align: center;&quot;&gt;EnergyBall&lt;/span&gt;()" style="text;strokeColor=none;fillColor=none;align=left;verticalAlign=middle;spacingLeft=4;spacingRight=4;overflow=hidden;points=[[0,0.5],[1,0.5]];portConstraint=eastwest;rotatable=0;whiteSpace=wrap;html=1;fontSize=11;strokeWidth=2;" vertex="1" parent="lT8LV4JRvNrV-bpm1Su4-75">
          <mxGeometry y="30" width="330" height="30" as="geometry" />
        </mxCell>
        <mxCell id="lT8LV4JRvNrV-bpm1Su4-77" value="&lt;div style=&quot;font-size: 11px;&quot;&gt;# applyOppEffects(pokemon: Pokemon): void&lt;br style=&quot;font-size: 11px;&quot;&gt;&lt;/div&gt;# describe(): String" style="text;strokeColor=default;fillColor=none;align=left;verticalAlign=middle;spacingLeft=4;spacingRight=4;overflow=hidden;points=[[0,0.5],[1,0.5]];portConstraint=eastwest;rotatable=0;whiteSpace=wrap;html=1;fontSize=11;strokeWidth=2;" vertex="1" parent="lT8LV4JRvNrV-bpm1Su4-75">
          <mxGeometry y="60" width="330" height="60" as="geometry" />
        </mxCell>
        <mxCell id="lT8LV4JRvNrV-bpm1Su4-82" style="edgeStyle=orthogonalEdgeStyle;rounded=1;orthogonalLoop=1;jettySize=auto;html=1;strokeWidth=2;curved=0;fillColor=#008a00;strokeColor=#005700;entryX=0;entryY=0.5;entryDx=0;entryDy=0;startArrow=none;startFill=0;endArrow=block;endFill=0;" edge="1" parent="WIyWlLk6GJQsqaUBKTNV-1" source="lT8LV4JRvNrV-bpm1Su4-79" target="lT8LV4JRvNrV-bpm1Su4-34">
          <mxGeometry relative="1" as="geometry">
            <mxPoint x="870" y="1200" as="targetPoint" />
            <Array as="points">
              <mxPoint x="-350" y="160" />
              <mxPoint x="-350" y="1200" />
            </Array>
          </mxGeometry>
        </mxCell>
        <mxCell id="lT8LV4JRvNrV-bpm1Su4-79" value="Extrasensory" style="swimlane;fontStyle=0;childLayout=stackLayout;horizontal=1;startSize=30;horizontalStack=0;resizeParent=1;resizeParentMax=0;resizeLast=0;collapsible=1;marginBottom=0;whiteSpace=wrap;html=1;fontSize=11;strokeWidth=2;fillColor=#99FF99;" vertex="1" parent="WIyWlLk6GJQsqaUBKTNV-1">
          <mxGeometry x="-250" y="100" width="330" height="120" as="geometry" />
        </mxCell>
        <mxCell id="lT8LV4JRvNrV-bpm1Su4-80" value="&lt;span style=&quot;text-align: center;&quot;&gt;Extrasensory&lt;/span&gt;()" style="text;strokeColor=none;fillColor=none;align=left;verticalAlign=middle;spacingLeft=4;spacingRight=4;overflow=hidden;points=[[0,0.5],[1,0.5]];portConstraint=eastwest;rotatable=0;whiteSpace=wrap;html=1;fontSize=11;strokeWidth=2;" vertex="1" parent="lT8LV4JRvNrV-bpm1Su4-79">
          <mxGeometry y="30" width="330" height="30" as="geometry" />
        </mxCell>
        <mxCell id="lT8LV4JRvNrV-bpm1Su4-81" value="&lt;div style=&quot;font-size: 11px;&quot;&gt;# applyOppEffects(pokemon: Pokemon): void&lt;br style=&quot;font-size: 11px;&quot;&gt;&lt;/div&gt;# describe(): String" style="text;strokeColor=default;fillColor=none;align=left;verticalAlign=middle;spacingLeft=4;spacingRight=4;overflow=hidden;points=[[0,0.5],[1,0.5]];portConstraint=eastwest;rotatable=0;whiteSpace=wrap;html=1;fontSize=11;strokeWidth=2;" vertex="1" parent="lT8LV4JRvNrV-bpm1Su4-79">
          <mxGeometry y="60" width="330" height="60" as="geometry" />
        </mxCell>
        <mxCell id="lT8LV4JRvNrV-bpm1Su4-86" style="edgeStyle=orthogonalEdgeStyle;rounded=1;orthogonalLoop=1;jettySize=auto;html=1;entryX=0;entryY=0.5;entryDx=0;entryDy=0;strokeWidth=2;fillColor=#008a00;strokeColor=#005700;curved=0;startArrow=none;startFill=0;endArrow=block;endFill=0;" edge="1" parent="WIyWlLk6GJQsqaUBKTNV-1" source="lT8LV4JRvNrV-bpm1Su4-83" target="lT8LV4JRvNrV-bpm1Su4-34">
          <mxGeometry relative="1" as="geometry">
            <Array as="points">
              <mxPoint x="-350" y="320" />
              <mxPoint x="-350" y="1200" />
            </Array>
          </mxGeometry>
        </mxCell>
        <mxCell id="lT8LV4JRvNrV-bpm1Su4-83" value="MoonBlast" style="swimlane;fontStyle=0;childLayout=stackLayout;horizontal=1;startSize=30;horizontalStack=0;resizeParent=1;resizeParentMax=0;resizeLast=0;collapsible=1;marginBottom=0;whiteSpace=wrap;html=1;fontSize=11;strokeWidth=2;fillColor=#99FF99;" vertex="1" parent="WIyWlLk6GJQsqaUBKTNV-1">
          <mxGeometry x="-250" y="260" width="330" height="120" as="geometry" />
        </mxCell>
        <mxCell id="lT8LV4JRvNrV-bpm1Su4-84" value="&lt;span style=&quot;text-align: center;&quot;&gt;MoonBlast&lt;/span&gt;()" style="text;strokeColor=none;fillColor=none;align=left;verticalAlign=middle;spacingLeft=4;spacingRight=4;overflow=hidden;points=[[0,0.5],[1,0.5]];portConstraint=eastwest;rotatable=0;whiteSpace=wrap;html=1;fontSize=11;strokeWidth=2;" vertex="1" parent="lT8LV4JRvNrV-bpm1Su4-83">
          <mxGeometry y="30" width="330" height="30" as="geometry" />
        </mxCell>
        <mxCell id="lT8LV4JRvNrV-bpm1Su4-85" value="&lt;div style=&quot;font-size: 11px;&quot;&gt;# applyOppEffects(pokemon: Pokemon): void&lt;br style=&quot;font-size: 11px;&quot;&gt;&lt;/div&gt;# describe(): String" style="text;strokeColor=default;fillColor=none;align=left;verticalAlign=middle;spacingLeft=4;spacingRight=4;overflow=hidden;points=[[0,0.5],[1,0.5]];portConstraint=eastwest;rotatable=0;whiteSpace=wrap;html=1;fontSize=11;strokeWidth=2;" vertex="1" parent="lT8LV4JRvNrV-bpm1Su4-83">
          <mxGeometry y="60" width="330" height="60" as="geometry" />
        </mxCell>
        <mxCell id="lT8LV4JRvNrV-bpm1Su4-90" style="edgeStyle=orthogonalEdgeStyle;rounded=1;orthogonalLoop=1;jettySize=auto;html=1;curved=0;fillColor=#e3c800;strokeColor=#B09500;strokeWidth=2;startArrow=none;startFill=0;exitX=0.459;exitY=1.032;exitDx=0;exitDy=0;exitPerimeter=0;endArrow=block;endFill=0;" edge="1" parent="WIyWlLk6GJQsqaUBKTNV-1" source="lT8LV4JRvNrV-bpm1Su4-89">
          <mxGeometry relative="1" as="geometry">
            <mxPoint x="1760.0526315789475" y="669.95" as="sourcePoint" />
            <mxPoint x="1900" y="1180" as="targetPoint" />
            <Array as="points">
              <mxPoint x="1759" y="1180" />
            </Array>
          </mxGeometry>
        </mxCell>
        <mxCell id="lT8LV4JRvNrV-bpm1Su4-124" style="edgeStyle=orthogonalEdgeStyle;rounded=0;orthogonalLoop=1;jettySize=auto;html=1;entryX=1;entryY=0.25;entryDx=0;entryDy=0;endArrow=diamondThin;endFill=1;" edge="1" parent="WIyWlLk6GJQsqaUBKTNV-1" source="lT8LV4JRvNrV-bpm1Su4-87" target="lT8LV4JRvNrV-bpm1Su4-23">
          <mxGeometry relative="1" as="geometry" />
        </mxCell>
        <mxCell id="lT8LV4JRvNrV-bpm1Su4-125" style="edgeStyle=orthogonalEdgeStyle;rounded=0;orthogonalLoop=1;jettySize=auto;html=1;entryX=1;entryY=0.25;entryDx=0;entryDy=0;endArrow=diamondThin;endFill=1;" edge="1" parent="WIyWlLk6GJQsqaUBKTNV-1" source="lT8LV4JRvNrV-bpm1Su4-87" target="lT8LV4JRvNrV-bpm1Su4-20">
          <mxGeometry relative="1" as="geometry" />
        </mxCell>
        <mxCell id="lT8LV4JRvNrV-bpm1Su4-126" style="edgeStyle=orthogonalEdgeStyle;rounded=0;orthogonalLoop=1;jettySize=auto;html=1;entryX=1;entryY=0.25;entryDx=0;entryDy=0;endArrow=diamondThin;endFill=1;" edge="1" parent="WIyWlLk6GJQsqaUBKTNV-1" source="lT8LV4JRvNrV-bpm1Su4-87" target="lT8LV4JRvNrV-bpm1Su4-25">
          <mxGeometry relative="1" as="geometry" />
        </mxCell>
        <mxCell id="lT8LV4JRvNrV-bpm1Su4-87" value="ThunderWave" style="swimlane;fontStyle=0;childLayout=stackLayout;horizontal=1;startSize=30;horizontalStack=0;resizeParent=1;resizeParentMax=0;resizeLast=0;collapsible=1;marginBottom=0;whiteSpace=wrap;html=1;fontSize=11;strokeWidth=2;fillColor=#FFFF99;" vertex="1" parent="WIyWlLk6GJQsqaUBKTNV-1">
          <mxGeometry x="1608" y="560" width="330" height="120" as="geometry" />
        </mxCell>
        <mxCell id="lT8LV4JRvNrV-bpm1Su4-88" value="&lt;span style=&quot;text-align: center;&quot;&gt;ThunderWave&lt;/span&gt;()" style="text;strokeColor=none;fillColor=none;align=left;verticalAlign=middle;spacingLeft=4;spacingRight=4;overflow=hidden;points=[[0,0.5],[1,0.5]];portConstraint=eastwest;rotatable=0;whiteSpace=wrap;html=1;fontSize=11;strokeWidth=2;" vertex="1" parent="lT8LV4JRvNrV-bpm1Su4-87">
          <mxGeometry y="30" width="330" height="30" as="geometry" />
        </mxCell>
        <mxCell id="lT8LV4JRvNrV-bpm1Su4-89" value="&lt;div style=&quot;font-size: 11px;&quot;&gt;# applyOppEffects(pokemon: Pokemon): void&lt;br style=&quot;font-size: 11px;&quot;&gt;&lt;/div&gt;# describe(): String" style="text;strokeColor=default;fillColor=none;align=left;verticalAlign=middle;spacingLeft=4;spacingRight=4;overflow=hidden;points=[[0,0.5],[1,0.5]];portConstraint=eastwest;rotatable=0;whiteSpace=wrap;html=1;fontSize=11;strokeWidth=2;" vertex="1" parent="lT8LV4JRvNrV-bpm1Su4-87">
          <mxGeometry y="60" width="330" height="60" as="geometry" />
        </mxCell>
        <mxCell id="lT8LV4JRvNrV-bpm1Su4-99" style="edgeStyle=orthogonalEdgeStyle;rounded=0;orthogonalLoop=1;jettySize=auto;html=1;entryX=0;entryY=0.25;entryDx=0;entryDy=0;endArrow=diamondThin;endFill=1;" edge="1" parent="WIyWlLk6GJQsqaUBKTNV-1" source="lT8LV4JRvNrV-bpm1Su4-81" target="lT8LV4JRvNrV-bpm1Su4-7">
          <mxGeometry relative="1" as="geometry" />
        </mxCell>
        <mxCell id="lT8LV4JRvNrV-bpm1Su4-100" style="edgeStyle=orthogonalEdgeStyle;rounded=0;orthogonalLoop=1;jettySize=auto;html=1;entryX=0;entryY=0.25;entryDx=0;entryDy=0;endArrow=diamondThin;endFill=1;" edge="1" parent="WIyWlLk6GJQsqaUBKTNV-1" source="lT8LV4JRvNrV-bpm1Su4-85" target="lT8LV4JRvNrV-bpm1Su4-7">
          <mxGeometry relative="1" as="geometry" />
        </mxCell>
        <mxCell id="lT8LV4JRvNrV-bpm1Su4-101" style="edgeStyle=orthogonalEdgeStyle;rounded=0;orthogonalLoop=1;jettySize=auto;html=1;entryX=0;entryY=0.25;entryDx=0;entryDy=0;endArrow=diamondThin;endFill=1;" edge="1" parent="WIyWlLk6GJQsqaUBKTNV-1" source="lT8LV4JRvNrV-bpm1Su4-77" target="lT8LV4JRvNrV-bpm1Su4-7">
          <mxGeometry relative="1" as="geometry">
            <mxPoint x="180" y="260" as="targetPoint" />
          </mxGeometry>
        </mxCell>
        <mxCell id="lT8LV4JRvNrV-bpm1Su4-102" style="edgeStyle=orthogonalEdgeStyle;rounded=0;orthogonalLoop=1;jettySize=auto;html=1;entryX=0.5;entryY=1;entryDx=0;entryDy=0;endArrow=diamondThin;endFill=1;" edge="1" parent="WIyWlLk6GJQsqaUBKTNV-1" source="lT8LV4JRvNrV-bpm1Su4-71" target="lT8LV4JRvNrV-bpm1Su4-7">
          <mxGeometry relative="1" as="geometry">
            <mxPoint x="280" y="200" as="targetPoint" />
          </mxGeometry>
        </mxCell>
        <mxCell id="lT8LV4JRvNrV-bpm1Su4-106" style="edgeStyle=orthogonalEdgeStyle;rounded=0;orthogonalLoop=1;jettySize=auto;html=1;entryX=0;entryY=0.25;entryDx=0;entryDy=0;endArrow=diamondThin;endFill=1;" edge="1" parent="WIyWlLk6GJQsqaUBKTNV-1" source="lT8LV4JRvNrV-bpm1Su4-47" target="lT8LV4JRvNrV-bpm1Su4-15">
          <mxGeometry relative="1" as="geometry" />
        </mxCell>
        <mxCell id="lT8LV4JRvNrV-bpm1Su4-107" style="edgeStyle=orthogonalEdgeStyle;rounded=0;orthogonalLoop=1;jettySize=auto;html=1;entryX=0;entryY=0.25;entryDx=0;entryDy=0;endArrow=diamondThin;endFill=1;exitX=1;exitY=0.5;exitDx=0;exitDy=0;" edge="1" parent="WIyWlLk6GJQsqaUBKTNV-1" source="lT8LV4JRvNrV-bpm1Su4-110" target="lT8LV4JRvNrV-bpm1Su4-15">
          <mxGeometry relative="1" as="geometry">
            <mxPoint x="760" y="539.9999999999999" as="sourcePoint" />
          </mxGeometry>
        </mxCell>
        <mxCell id="lT8LV4JRvNrV-bpm1Su4-109" style="edgeStyle=orthogonalEdgeStyle;rounded=0;orthogonalLoop=1;jettySize=auto;html=1;entryX=0.546;entryY=1.019;entryDx=0;entryDy=0;entryPerimeter=0;endArrow=diamondThin;endFill=1;" edge="1" parent="WIyWlLk6GJQsqaUBKTNV-1" source="lT8LV4JRvNrV-bpm1Su4-41" target="lT8LV4JRvNrV-bpm1Su4-16">
          <mxGeometry relative="1" as="geometry" />
        </mxCell>
        <mxCell id="lT8LV4JRvNrV-bpm1Su4-45" value="DoubleEdge" style="swimlane;fontStyle=0;childLayout=stackLayout;horizontal=1;startSize=30;horizontalStack=0;resizeParent=1;resizeParentMax=0;resizeLast=0;collapsible=1;marginBottom=0;whiteSpace=wrap;html=1;fontSize=11;strokeWidth=2;fillColor=#CCCCFF;" vertex="1" parent="WIyWlLk6GJQsqaUBKTNV-1">
          <mxGeometry x="410" y="540" width="330" height="120" as="geometry" />
        </mxCell>
        <mxCell id="lT8LV4JRvNrV-bpm1Su4-46" value="&lt;span style=&quot;text-align: center; font-size: 11px;&quot;&gt;DoubleEdge()&lt;/span&gt;" style="text;strokeColor=none;fillColor=none;align=left;verticalAlign=middle;spacingLeft=4;spacingRight=4;overflow=hidden;points=[[0,0.5],[1,0.5]];portConstraint=eastwest;rotatable=0;whiteSpace=wrap;html=1;fontSize=11;strokeWidth=2;" vertex="1" parent="lT8LV4JRvNrV-bpm1Su4-45">
          <mxGeometry y="30" width="330" height="30" as="geometry" />
        </mxCell>
        <mxCell id="lT8LV4JRvNrV-bpm1Su4-47" value="# applySelfDamage(pokemon: Pokemon, damage: double): void&lt;div style=&quot;font-size: 11px;&quot;&gt;# describe(): String&lt;/div&gt;" style="text;strokeColor=default;fillColor=none;align=left;verticalAlign=middle;spacingLeft=4;spacingRight=4;overflow=hidden;points=[[0,0.5],[1,0.5]];portConstraint=eastwest;rotatable=0;whiteSpace=wrap;html=1;fontSize=11;strokeWidth=2;" vertex="1" parent="lT8LV4JRvNrV-bpm1Su4-45">
          <mxGeometry y="60" width="330" height="60" as="geometry" />
        </mxCell>
        <mxCell id="lT8LV4JRvNrV-bpm1Su4-111" style="edgeStyle=orthogonalEdgeStyle;rounded=0;orthogonalLoop=1;jettySize=auto;html=1;entryX=0;entryY=0.25;entryDx=0;entryDy=0;endArrow=diamondThin;endFill=1;" edge="1" parent="WIyWlLk6GJQsqaUBKTNV-1" source="lT8LV4JRvNrV-bpm1Su4-110" target="lT8LV4JRvNrV-bpm1Su4-13">
          <mxGeometry relative="1" as="geometry" />
        </mxCell>
        <mxCell id="lT8LV4JRvNrV-bpm1Su4-112" style="edgeStyle=orthogonalEdgeStyle;rounded=0;orthogonalLoop=1;jettySize=auto;html=1;entryX=0;entryY=0.25;entryDx=0;entryDy=0;endArrow=diamondThin;endFill=1;" edge="1" parent="WIyWlLk6GJQsqaUBKTNV-1" source="lT8LV4JRvNrV-bpm1Su4-47" target="lT8LV4JRvNrV-bpm1Su4-13">
          <mxGeometry relative="1" as="geometry" />
        </mxCell>
        <mxCell id="lT8LV4JRvNrV-bpm1Su4-116" style="edgeStyle=orthogonalEdgeStyle;rounded=0;orthogonalLoop=1;jettySize=auto;html=1;entryX=0.25;entryY=0;entryDx=0;entryDy=0;endArrow=diamondThin;endFill=1;" edge="1" parent="WIyWlLk6GJQsqaUBKTNV-1" source="lT8LV4JRvNrV-bpm1Su4-54" target="lT8LV4JRvNrV-bpm1Su4-13">
          <mxGeometry relative="1" as="geometry">
            <Array as="points">
              <mxPoint x="780" y="330" />
              <mxPoint x="780" y="240" />
              <mxPoint x="930" y="240" />
            </Array>
          </mxGeometry>
        </mxCell>
        <mxCell id="lT8LV4JRvNrV-bpm1Su4-121" style="edgeStyle=orthogonalEdgeStyle;rounded=0;orthogonalLoop=1;jettySize=auto;html=1;entryX=0;entryY=0.25;entryDx=0;entryDy=0;endArrow=diamondThin;endFill=1;" edge="1" parent="WIyWlLk6GJQsqaUBKTNV-1" source="lT8LV4JRvNrV-bpm1Su4-71" target="lT8LV4JRvNrV-bpm1Su4-20">
          <mxGeometry relative="1" as="geometry">
            <Array as="points">
              <mxPoint x="1440" y="810" />
              <mxPoint x="1440" y="275" />
            </Array>
          </mxGeometry>
        </mxCell>
        <mxCell id="lT8LV4JRvNrV-bpm1Su4-122" style="edgeStyle=orthogonalEdgeStyle;rounded=0;orthogonalLoop=1;jettySize=auto;html=1;entryX=0;entryY=0.75;entryDx=0;entryDy=0;endArrow=diamondThin;endFill=1;" edge="1" parent="WIyWlLk6GJQsqaUBKTNV-1" source="lT8LV4JRvNrV-bpm1Su4-71" target="lT8LV4JRvNrV-bpm1Su4-25">
          <mxGeometry relative="1" as="geometry">
            <mxPoint x="1430" y="219.9999999999999" as="targetPoint" />
            <Array as="points">
              <mxPoint x="1440" y="810" />
              <mxPoint x="1440" y="175" />
            </Array>
          </mxGeometry>
        </mxCell>
        <mxCell id="lT8LV4JRvNrV-bpm1Su4-123" style="edgeStyle=orthogonalEdgeStyle;rounded=0;orthogonalLoop=1;jettySize=auto;html=1;entryX=0;entryY=0.25;entryDx=0;entryDy=0;endArrow=diamondThin;endFill=1;" edge="1" parent="WIyWlLk6GJQsqaUBKTNV-1" source="lT8LV4JRvNrV-bpm1Su4-71" target="lT8LV4JRvNrV-bpm1Su4-23">
          <mxGeometry relative="1" as="geometry">
            <Array as="points">
              <mxPoint x="1440" y="810" />
              <mxPoint x="1440" y="447" />
            </Array>
          </mxGeometry>
        </mxCell>
        <mxCell id="lT8LV4JRvNrV-bpm1Su4-129" style="edgeStyle=orthogonalEdgeStyle;rounded=0;orthogonalLoop=1;jettySize=auto;html=1;entryX=0.697;entryY=1.051;entryDx=0;entryDy=0;entryPerimeter=0;endArrow=diamondThin;endFill=1;fillColor=#e6d0de;strokeColor=#996185;strokeWidth=2;gradientColor=#d5739d;" edge="1" parent="WIyWlLk6GJQsqaUBKTNV-1" source="lT8LV4JRvNrV-bpm1Su4-61" target="lT8LV4JRvNrV-bpm1Su4-21">
          <mxGeometry relative="1" as="geometry">
            <Array as="points">
              <mxPoint x="1657" y="370" />
            </Array>
          </mxGeometry>
        </mxCell>
        <mxCell id="lT8LV4JRvNrV-bpm1Su4-130" style="edgeStyle=orthogonalEdgeStyle;rounded=0;orthogonalLoop=1;jettySize=auto;html=1;entryX=0.668;entryY=1.041;entryDx=0;entryDy=0;entryPerimeter=0;strokeWidth=2;fillColor=#e6d0de;gradientColor=#d5739d;strokeColor=#996185;endArrow=diamondThin;endFill=1;" edge="1" parent="WIyWlLk6GJQsqaUBKTNV-1" source="lT8LV4JRvNrV-bpm1Su4-61" target="lT8LV4JRvNrV-bpm1Su4-26">
          <mxGeometry relative="1" as="geometry">
            <Array as="points">
              <mxPoint x="1810" y="370" />
              <mxPoint x="1810" y="220" />
              <mxPoint x="1650" y="220" />
            </Array>
          </mxGeometry>
        </mxCell>
        <mxCell id="lT8LV4JRvNrV-bpm1Su4-131" value="Text" style="text;html=1;align=center;verticalAlign=middle;resizable=0;points=[];autosize=1;strokeColor=none;fillColor=none;" vertex="1" parent="WIyWlLk6GJQsqaUBKTNV-1">
          <mxGeometry x="-695" y="538" width="50" height="30" as="geometry" />
        </mxCell>
      </root>
    </mxGraphModel>
  </diagram>
</mxfile>
